<?xml version="1.0" encoding="UTF-8" standalone="no"?>
<svg
   xmlns:dc="http://purl.org/dc/elements/1.1/"
   xmlns:cc="http://creativecommons.org/ns#"
   xmlns:rdf="http://www.w3.org/1999/02/22-rdf-syntax-ns#"
   xmlns:svg="http://www.w3.org/2000/svg"
   xmlns="http://www.w3.org/2000/svg"
   xml:space="preserve"
   enable-background="new 0 0 1920 1080"
   viewBox="0 0 1230.8879 426.716"
   height="426.716"
   width="1230.8879"
   y="0px"
   x="0px"
   id="Layer_1"
   version="1.1"><metadata
   id="metadata53"><rdf:RDF><cc:Work
       rdf:about=""><dc:format>image/svg+xml</dc:format><dc:type
         rdf:resource="http://purl.org/dc/dcmitype/StillImage" /></cc:Work></rdf:RDF></metadata><defs
   id="defs51" />
<g
   transform="translate(-344.556,-326.642)"
   id="g46">
	<path
   style="clip-rule:evenodd;fill:#a5cd39;fill-rule:evenodd"
   id="path2"
   d="m 529.494,376.027 c 91.437,0 167.367,66.367 182.27,153.556 H 579.674 C 569.214,512.886 550.65,501.78 529.49,501.78 c -32.684,0 -59.184,26.495 -59.184,59.182 0,32.683 26.5,59.184 59.184,59.184 18.565,0 35.133,-8.55 45.983,-21.928 h 135.199 c -17.238,84.274 -91.809,147.68 -181.179,147.68 -102.136,0 -184.937,-82.802 -184.937,-184.936 0.002,-102.137 82.802,-184.935 184.938,-184.935" />
	<polygon
   style="clip-rule:evenodd;fill:#a5cd39;fill-rule:evenodd"
   id="polygon4"
   points="809.985,326.642 653.743,326.642 579.932,529.682 736.175,529.682 " />
	<path
   style="clip-rule:evenodd;fill:#29743a;fill-rule:evenodd"
   id="path6"
   d="m 579.971,529.583 45.966,-126.446 c -27.974,-17.13 -60.854,-27.036 -96.046,-27.109 L 579.9,529.584 h 0.071 z" />
	<path
   style="fill:#58595b"
   id="path8"
   d="m 910.154,415.89 v 28.184 h -6.036 c -0.479,-7.115 -2.76,-12.793 -6.796,-17.11 -4.078,-4.277 -9.396,-6.436 -15.991,-6.436 -4.918,0 -9.234,1.438 -12.953,4.317 -3.759,2.837 -6.636,6.676 -8.596,11.473 -1.959,4.798 -2.958,10.075 -2.958,15.832 0,9.713 2.079,18.069 6.276,25.025 4.157,6.956 10.235,10.434 18.23,10.434 5.837,0 10.833,-1.959 14.99,-5.836 4.119,-3.918 6.479,-8.995 7.077,-15.231 h 7.476 c 0,6.076 -1.56,11.234 -4.597,15.392 -3.079,4.197 -6.996,7.275 -11.713,9.234 -4.719,1.959 -9.437,2.96 -14.153,2.96 -6.917,0 -12.793,-1.961 -17.67,-5.918 -4.837,-3.917 -8.477,-9.035 -10.874,-15.353 -2.438,-6.275 -3.638,-12.872 -3.638,-19.749 0,-11.272 2.877,-20.588 8.595,-27.983 5.757,-7.396 13.592,-11.074 23.546,-11.074 4.879,0 9.437,1.079 13.673,3.238 4.197,2.158 7.157,5.237 8.876,9.275 h 0.479 V 415.89 Z" />
	<path
   style="fill:#58595b"
   id="path10"
   d="m 929.502,449.271 h 48.212 c -0.118,-8.517 -2.277,-15.474 -6.475,-20.789 -4.197,-5.318 -10.115,-7.955 -17.791,-7.955 -6.955,0 -12.632,2.718 -16.95,8.195 -4.316,5.476 -6.636,12.314 -6.996,20.549 m 56.887,6.475 h -56.887 c 0,9.596 2.159,17.311 6.437,23.107 4.316,5.837 10.634,8.755 18.99,8.755 5.676,0 10.633,-1.598 14.871,-4.837 4.278,-3.198 6.915,-7.796 7.914,-13.832 h 7.437 c -0.4,7.875 -3.639,14.032 -9.633,18.469 -6,4.479 -12.675,6.719 -20.11,6.719 -11.233,0 -19.788,-3.559 -25.705,-10.636 -5.876,-7.117 -8.834,-17.47 -8.834,-31.102 0,-11.195 2.878,-20.39 8.675,-27.586 5.756,-7.155 13.991,-10.754 24.706,-10.754 10.714,0 18.709,3.718 24.104,11.114 5.357,7.438 8.035,17.631 8.035,30.583 z" />
	<path
   style="fill:#58595b"
   id="path12"
   d="m 992.507,492.446 v -6.517 h 11.312 v -63.765 h -11.312 v -6.275 h 19.229 V 431 h 0.239 c 1.119,-5.117 3.359,-9.235 6.676,-12.313 3.316,-3.118 7.235,-4.677 11.756,-4.677 2.438,0 4.275,0.16 5.553,0.479 v 7.675 c -2.557,-0.319 -4.437,-0.479 -5.553,-0.479 -12.435,0 -18.671,10.553 -18.671,31.621 v 32.622 h 15.108 v 6.517 h -34.337 z" />
	<path
   style="fill:#58595b"
   id="path14"
   d="m 1083.334,415.89 v 6.275 h -22.788 V 467.5 c 0,6.477 0.562,11.314 1.639,14.473 1.079,3.158 3.518,4.716 7.237,4.716 3.959,0 6.633,-1.397 7.992,-4.276 1.402,-2.88 2.082,-7.275 2.082,-13.232 h 7.437 c 0,8.234 -1.359,14.472 -4.04,18.669 -2.677,4.197 -7.355,6.278 -13.992,6.278 -10.672,0 -16.029,-7.918 -16.029,-23.788 v -48.174 h -12.953 v -6.275 h 12.953 v -18.23 l 7.675,-3.318 v 21.549 h 22.787 z" />
	<path
   style="fill:#58595b"
   id="path16"
   d="m 1113.434,385.227 v 11.753 h -9.354 v -11.753 z m -23.027,107.219 v -6.517 h 15.351 v -63.765 h -15.351 v -6.275 h 23.026 v 70.04 h 12.475 v 6.517 z" />
	<path
   style="fill:#58595b"
   id="path18"
   d="m 1130.103,492.446 v -6.517 h 12.472 v -63.765 h -12.472 v -6.275 h 12.472 v -8.355 c 0,-18.711 7.518,-28.064 22.549,-28.064 2.479,0 5.039,0.398 7.676,1.16 v 7.474 c -3.118,-0.799 -5.675,-1.199 -7.676,-1.199 -5.916,0 -9.875,1.761 -11.873,5.198 -1.998,3.437 -2.997,8.596 -2.997,15.432 v 8.355 h 16.791 v 6.275 h -16.791 v 63.765 h 14.39 v 6.517 h -34.541 z" />
	<path
   style="fill:#58595b"
   id="path20"
   d="m 1193.864,385.227 v 11.753 h -9.354 v -11.753 z m -23.026,107.219 v -6.517 h 15.351 v -63.765 h -15.351 v -6.275 h 23.026 v 70.04 h 12.475 v 6.517 z" />
	<path
   style="fill:#58595b"
   id="path22"
   d="m 1276.578,415.89 v 28.184 h -6.037 c -0.48,-7.115 -2.758,-12.793 -6.797,-17.11 -4.077,-4.277 -9.395,-6.436 -15.99,-6.436 -4.918,0 -9.236,1.438 -12.953,4.317 -3.76,2.837 -6.636,6.676 -8.597,11.473 -1.958,4.798 -2.957,10.075 -2.957,15.832 0,9.713 2.079,18.069 6.276,25.025 4.157,6.956 10.235,10.434 18.23,10.434 5.836,0 10.834,-1.959 14.99,-5.836 4.117,-3.918 6.479,-8.995 7.077,-15.231 h 7.477 c 0,6.076 -1.561,11.234 -4.598,15.392 -3.081,4.197 -6.996,7.275 -11.715,9.234 -4.719,1.959 -9.435,2.96 -14.153,2.96 -6.915,0 -12.791,-1.961 -17.668,-5.918 -4.837,-3.917 -8.477,-9.035 -10.874,-15.353 -2.438,-6.275 -3.64,-12.872 -3.64,-19.749 0,-11.272 2.879,-20.588 8.597,-27.983 5.755,-7.396 13.592,-11.074 23.548,-11.074 4.877,0 9.435,1.079 13.67,3.238 4.2,2.158 7.156,5.237 8.875,9.275 h 0.481 V 415.89 Z" />
	<path
   style="fill:#58595b"
   id="path24"
   d="m 1295.165,470.139 c 0,5.317 1.719,9.556 5.116,12.714 3.44,3.158 7.558,4.756 12.395,4.756 8.553,0 14.792,-3.237 18.67,-9.754 3.878,-6.477 5.836,-14.791 5.836,-24.985 h -15.832 c -17.47,-10e-4 -26.185,5.755 -26.185,17.269 m 42.017,22.307 v -15.353 h -0.481 c -1.957,5.598 -5.276,9.875 -9.993,12.714 -4.715,2.878 -9.955,4.319 -15.67,4.319 -7.238,0 -13.154,-2.081 -17.672,-6.238 -4.517,-4.158 -6.794,-10.234 -6.794,-18.229 0,-6.596 1.877,-11.633 5.597,-15.112 3.717,-3.438 8.153,-5.676 13.31,-6.676 5.119,-0.999 10.797,-1.479 17.073,-1.479 h 14.631 v -5.557 c 0,-13.553 -6.479,-20.309 -19.468,-20.309 -11.836,0 -18.55,5.517 -20.15,16.51 h -8.594 c 1.998,-15.311 11.352,-22.987 28.064,-22.987 9.233,0 16.188,2.039 20.867,6.158 4.638,4.117 6.956,10.993 6.956,20.667 v 45.055 h 10.594 v 6.517 z" />
	<path
   style="fill:#58595b"
   id="path26"
   d="m 1379.396,524.228 0.521,-5.315 5.314,0.24 c 9.676,0 14.473,-2.56 14.473,-7.718 0,-1.198 -0.44,-2.438 -1.278,-3.757 -2.038,-2.119 -5.438,-3.158 -10.194,-3.158 l 2.919,-10.035 h 6.276 l -2.401,8.197 c 4.318,0 7.716,0.959 10.117,2.837 2.438,1.919 3.636,4.157 3.636,6.717 0,2.718 -1.52,5.557 -4.558,8.396 -3.037,2.877 -8.354,4.316 -15.868,4.316 -3.279,-10e-4 -6.279,-0.241 -8.957,-0.72 M 1425.17,415.89 v 28.144 h -5.994 c -0.48,-7.115 -2.762,-12.832 -6.797,-17.11 -4.077,-4.318 -9.395,-6.436 -15.99,-6.436 -4.877,0 -9.196,1.439 -12.953,4.278 -3.76,2.877 -6.599,6.715 -8.597,11.513 -1.958,4.797 -2.957,10.114 -2.957,15.871 0,9.713 2.116,18.069 6.276,25.025 4.197,6.996 10.232,10.474 18.23,10.474 5.836,0 10.834,-1.957 14.99,-5.876 4.117,-3.878 6.476,-8.955 7.074,-15.191 h 7.437 c 0,6.076 -1.518,11.194 -4.598,15.392 -3.078,4.157 -6.956,7.235 -11.672,9.234 -4.719,1.959 -9.475,2.92 -14.193,2.92 -6.915,0 -12.792,-1.961 -17.628,-5.878 -4.84,-3.957 -8.477,-9.075 -10.874,-15.351 -2.438,-6.278 -3.64,-12.914 -3.64,-19.791 0,-11.272 2.879,-20.588 8.597,-27.983 5.755,-7.396 13.592,-11.074 23.545,-11.074 4.877,0 9.435,1.04 13.673,3.198 4.197,2.159 7.156,5.237 8.875,9.274 h 0.479 V 415.89 Z" />
	<path
   style="fill:#58595b"
   id="path28"
   d="m 1492.251,391.023 c 0,3.958 -1.278,7.275 -3.798,9.875 -2.557,2.598 -5.678,3.876 -9.313,3.876 -2.718,0 -6.677,-1.358 -11.913,-4.076 -3.559,-2.04 -6.357,-3.079 -8.436,-3.079 -4.399,0 -6.956,2.479 -7.716,7.396 h -6.438 c 0.319,-4.316 1.759,-7.715 4.358,-10.113 2.6,-2.438 5.719,-3.64 9.354,-3.64 2.798,0 6.837,1.32 12.155,3.959 3.195,1.638 5.916,2.479 8.072,2.479 3.999,0 6.438,-2.238 7.275,-6.676 h 6.4 z m -48.451,79.116 c 0,5.356 1.719,9.596 5.116,12.752 3.438,3.158 7.558,4.758 12.395,4.758 8.553,0 14.792,-3.237 18.67,-9.754 3.875,-6.517 5.836,-14.831 5.836,-25.025 h -15.832 c -17.43,-10e-4 -26.185,5.755 -26.185,17.269 z m 42.016,22.307 v -15.353 h -0.48 c -1.958,5.639 -5.277,9.875 -10.034,12.753 -4.719,2.879 -9.915,4.28 -15.633,4.28 -7.235,0 -13.151,-2.081 -17.669,-6.238 -4.517,-4.158 -6.797,-10.234 -6.797,-18.229 0,-6.596 1.88,-11.633 5.597,-15.071 3.72,-3.438 8.156,-5.678 13.272,-6.677 5.159,-0.999 10.837,-1.479 17.072,-1.479 h 14.672 v -5.597 c 0,-13.553 -6.479,-20.349 -19.471,-20.349 -11.833,0 -18.55,5.516 -20.147,16.55 h -8.597 c 2.001,-15.351 11.354,-22.987 28.064,-22.987 9.236,0 16.191,2.039 20.83,6.158 4.635,4.117 6.996,10.993 6.996,20.628 v 45.094 h 10.594 v 6.517 z" />
	<path
   style="fill:#58595b"
   id="path30"
   d="m 1518.436,454.108 c 0,12.433 2.64,21.107 7.877,26.064 5.236,4.958 10.672,7.436 16.31,7.436 5.758,0 11.274,-2.478 16.552,-7.395 5.277,-4.919 7.914,-13.633 7.914,-26.105 0,-12.395 -2.637,-21.107 -7.874,-26.107 -5.237,-4.996 -10.794,-7.474 -16.592,-7.474 -5.638,0 -11.073,2.518 -16.31,7.516 -5.238,4.996 -7.877,13.711 -7.877,26.065 M 1510,454.067 c 0,-5.876 0.76,-11.313 2.28,-16.271 1.517,-4.957 3.717,-9.195 6.636,-12.752 2.876,-3.559 6.316,-6.276 10.313,-8.157 3.999,-1.878 8.477,-2.838 13.394,-2.838 6.677,0 12.512,1.64 17.47,4.957 4.957,3.32 8.755,7.997 11.396,14.032 2.637,6.036 3.955,13.034 3.955,21.028 0,8.036 -1.318,15.032 -3.995,21.069 -2.641,6.035 -6.438,10.713 -11.355,14.032 -4.958,3.316 -10.793,4.958 -17.47,4.958 -6.556,0 -12.313,-1.642 -17.231,-4.958 -4.917,-3.319 -8.715,-8.035 -11.392,-14.113 -2.683,-6.115 -4.001,-13.071 -4.001,-20.987 z" />
	<path
   style="fill:#58595b"
   id="path32"
   d="m 906.881,681.202 c 11.014,0 18.784,-3.584 23.311,-10.815 4.527,-7.229 6.825,-18.105 6.825,-32.632 0,-11.081 -2.298,-20.407 -6.893,-27.902 -4.595,-7.57 -11.352,-11.355 -20.338,-11.355 -8.783,0 -15.202,4.058 -19.323,12.097 -4.122,8.038 -6.216,17.904 -6.216,29.662 0,12.77 2.094,22.834 6.282,30.065 4.191,7.228 9.663,10.88 16.352,10.88 m 58.377,-158.916 v 156.415 h 15.068 v 24.795 h -42.162 v -20.743 h -1.147 c -4.729,8.786 -9.866,15.068 -15.542,18.782 -5.674,3.717 -13.241,5.609 -22.7,5.609 -14.527,0 -25.811,-6.285 -33.784,-18.919 -7.905,-12.633 -11.892,-27.972 -11.892,-45.875 0,-22.838 4.258,-40.137 12.838,-51.824 8.581,-11.689 20.27,-17.568 34.932,-17.568 16.215,0 27.297,7.434 33.241,22.3 h 0.406 v -48.244 h -14.662 v -24.728 z" />
	<path
   style="fill:#58595b"
   id="path34"
   d="m 1041.066,522.286 v 36.553 h -32.027 v -36.553 z m -45.81,181.21 V 678.77 h 15 v -77.431 h -15 v -24.732 h 45.811 V 678.77 h 14.932 v 24.727 h -60.743 z" />
	<path
   style="fill:#58595b"
   id="path36"
   d="m 1101.877,638.295 c 0,10.676 2.296,19.595 6.891,26.824 4.595,7.229 10.945,10.809 19.055,10.809 8.984,0 15.674,-3.58 20.132,-10.809 4.462,-7.229 6.688,-16.623 6.688,-28.108 0,-10.74 -2.162,-19.729 -6.418,-26.892 -4.257,-7.229 -10.878,-10.81 -19.999,-10.81 -8.851,0 -15.472,3.785 -19.796,11.353 -4.391,7.635 -6.553,16.824 -6.553,27.633 m 96.144,-61.689 v 24.801 h -15.068 v 90.33 c 0,18.044 -4.459,32.84 -13.378,44.325 -8.919,11.554 -23.445,17.296 -43.714,17.296 -16.147,0 -28.377,-3.311 -36.621,-9.862 -8.243,-6.624 -12.701,-17.231 -13.241,-31.825 h 33.175 c 0.54,6.891 2.565,11.554 6.013,13.853 3.446,2.364 8.106,3.512 13.849,3.512 6.689,0 12.23,-3.108 16.623,-9.391 4.325,-6.282 6.487,-13.512 6.487,-21.758 v -14.253 c -5.407,6.822 -10.542,11.554 -15.475,14.253 -4.933,2.705 -11.755,4.055 -20.606,4.055 -9.121,0 -17.163,-2.839 -24.054,-8.444 -6.958,-5.675 -12.229,-13.244 -15.813,-22.701 -3.646,-9.527 -5.47,-19.663 -5.47,-30.54 0,-19.933 4.055,-35.944 12.093,-48.175 8.039,-12.229 20.337,-18.311 36.892,-18.311 15.472,0 27.162,7.567 34.93,22.771 h 0.407 v -19.936 z" />
	<path
   style="fill:#58595b"
   id="path38"
   d="m 1258.695,522.286 v 36.553 h -32.025 v -36.553 z m -45.81,181.21 V 678.77 h 15.001 v -77.431 h -15.001 v -24.732 h 45.811 V 678.77 h 14.933 v 24.727 h -60.744 z" />
	<path
   style="fill:#58595b"
   id="path40"
   d="m 1360.449,576.606 v 24.732 h -29.188 v 60.808 c 0,6.419 0.54,11.216 1.552,14.39 1.083,3.108 3.648,4.666 7.771,4.666 6.149,0 9.255,-6.084 9.255,-18.311 h 18.311 c 0,15.134 -2.498,26.28 -7.633,33.444 -5.137,7.229 -13.92,10.809 -26.488,10.809 -9.593,0 -17.43,-3.58 -23.578,-10.676 -6.081,-7.163 -9.121,-15.608 -9.121,-25.471 v -69.659 h -17.908 v -24.732 h 17.908 v -24.728 l 29.932,-12.567 v 37.295 z" />
	<path
   style="fill:#58595b"
   id="path42"
   d="m 1452.81,645.523 h -14.929 c -9.395,0 -16.623,1.421 -21.826,4.188 -5.135,2.773 -7.771,7.974 -7.771,15.677 0,5.743 1.555,10.204 4.595,13.244 3.108,3.041 7.095,4.592 12.028,4.592 8.919,0 15.81,-3.443 20.674,-10.405 4.796,-6.956 7.229,-16.077 7.229,-27.296 m 0.406,57.973 v -18.174 h -0.406 c -4.66,8.239 -9.661,13.917 -14.997,17.094 -5.271,3.174 -12.162,4.729 -20.609,4.729 -10.741,0 -19.729,-3.58 -26.89,-10.676 -7.231,-7.163 -10.812,-17.228 -10.812,-30.271 0,-18.311 5.674,-29.932 17.094,-34.995 11.353,-5.069 26.486,-7.57 45.336,-7.57 h 10.878 v -9.322 c 0,-13.245 -7.027,-19.865 -21.078,-19.865 -12.298,0 -19.056,7.027 -20.203,21.081 h -28.378 c 0.472,-11.488 3.108,-20.404 7.973,-26.69 4.865,-6.282 10.945,-10.539 18.243,-12.633 7.229,-2.163 15.81,-3.245 25.676,-3.245 11.618,0 20.876,1.961 27.565,5.813 6.757,3.851 11.488,9.795 14.323,17.836 2.839,8.039 4.257,18.649 4.257,31.891 v 50.271 h 13.784 v 24.727 h -41.756 z" />
	<polygon
   style="fill:#58595b"
   id="polygon44"
   points="1521.727,678.77 1521.727,547.014 1506.795,547.014 1506.795,522.286 1552.605,522.286 1552.605,678.77 1567.537,678.77 1567.537,703.496 1506.795,703.496 1506.795,678.77 " />
</g>
</svg>