<svg xmlns="http://www.w3.org/2000/svg" width="58.863" height="41.045" viewBox="0 0 58.863 41.045">
  <g id="ic-folder-simple" transform="translate(0.35 0.35)">
    <path id="Caminho_200" data-name="Caminho 200" d="M330.334,466.282h-38a4.976,4.976,0,0,1-4.976-5V435.37h8.573" transform="translate(-286.61 -426.885)" fill="none" stroke="#24d3fe" stroke-linecap="round" stroke-linejoin="round" stroke-width="2.2"/>
    <path id="Caminho_201" data-name="Caminho 201" d="M287.36,447.953V434.728a2.3,2.3,0,0,1,2.326-2.218h22.907a2.543,2.543,0,0,1,1.677.649l2.218,3.84" transform="translate(-286.61 -431.76)" fill="none" stroke="#24d3fe" stroke-linecap="round" stroke-linejoin="round" stroke-width="2.2"/>
    <path id="Caminho_200-2" data-name="Caminho 200" d="M297.079,434.63h42.974c2.7,0,4.192,2.38,3.245,5.409h0l-7.356,22.284a7.816,7.816,0,0,1-6.734,5.409H291.589a3.759,3.759,0,0,1-3.6-5.409Z" transform="translate(-286.188 -428.146)" fill="none" stroke="#24d3fe" stroke-linecap="round" stroke-linejoin="round" stroke-width="2.2"/>
    <path id="Caminho_6507" data-name="Caminho 6507" d="M297.8,433.31" transform="translate(-268.816 -430.396)" fill="none" stroke="#24d3fe" stroke-linecap="round" stroke-linejoin="round" stroke-width="2.2"/>
  </g>
</svg>
